PathFileType	4	(X/Y/Z)	C249e_D251_DD_1_S001_6.trc
DataRate	CameraRate	NumFrames	NumMarkers	Units	OrigDataRate	OrigDataStartFrame	OrigNumFrames
50.0	50.0	4	54	mm	50.0	35	274
Frame#	Time		Q_WaistRFront		Q_WaistLFront		Q_WaistL		Q_WaistR		Q_WaistBack		Q_LThighFrontLow		Q_RThighFrontLow		Q_RKneeIn		Q_RKneeOut		Q_RShinFrontHigh		Q_LKneeIn		Q_LKneeOut		Q_LShinFrontHigh		Q_RForefoot5		Q_RForefoot2		Q_RHeelBack		Q_RAnkleOut		Q_LForefoot5		Q_LForefoot2		Q_LHeelBack		Q_LAnkleOut		Q_SpineThoracic2		Q_Chest		Q_SpineThoracic12		Q_HeadL		Q_HeadR		Q_HeadFront		Q_LShoulderTop		Q_LArm		Q_LElbowOut		Q_LElbowIn		Q_LWristOut		Q_LWristIn		Q_LHand2		Q_RShoulderTop		Q_RArm		Q_RElbowOut		Q_RElbowIn		Q_RWristOut		Q_RWristIn		Q_RHand2		RHipAngles		LHipAngles		RKneeAngles		LKneeAngles		RAnkleAngles		LAnkleAngles		RShoulderAngles		LShoulderAngles		RElbowAngles		LElbowAngles		RWristAngles		LWristAngles		Neck
			X1	Y1	Z1	X2	Y2	Z2	X3	Y3	Z3	X4	Y4	Z4	X5	Y5	Z5	X6	Y6	Z6	X7	Y7	Z7	X8	Y8	Z8	X9	Y9	Z9	X10	Y10	Z10	X11	Y11	Z11	X12	Y12	Z12	X13	Y13	Z13	X14	Y14	Z14	X15	Y15	Z15	X16	Y16	Z16	X17	Y17	Z17	X18	Y18	Z18	X19	Y19	Z19	X20	Y20	Z20	X21	Y21	Z21	X22	Y22	Z22	X23	Y23	Z23	X24	Y24	Z24	X25	Y25	Z25	X26	Y26	Z26	X27	Y27	Z27	X28	Y28	Z28	X29	Y29	Z29	X30	Y30	Z30	X31	Y31	Z31	X32	Y32	Z32	X33	Y33	Z33	X34	Y34	Z34	X35	Y35	Z35	X36	Y36	Z36	X37	Y37	Z37	X38	Y38	Z38	X39	Y39	Z39	X40	Y40	Z40	X41	Y41	Z41	X42	Y42	Z42	X43	Y43	Z43	X44	Y44	Z44	X45	Y45	Z45	X46	Y46	Z46	X47	Y47	Z47	X48	Y48	Z48	X49	Y49	Z49	X50	Y50	Z50	X51	Y51	Z51	X52	Y52	Z52	X53	Y53	Z53	X54	Y54	Z54

35	0.68000	135.08119	827.81348	130.39656	-121.28893	828.10913	138.23555	-119.28776	842.78644	203.12959	137.08237	842.49072	195.29062	8.89731	842.63861	199.21010	-114.74950	464.74136	198.28554	137.93251	465.54517	180.57381	94.68616	403.18219	199.54703	231.61441	430.67334	189.80582	202.52347	219.84354	191.92870	-71.19798	402.96130	221.01009	-207.86150	429.68903	206.56320	-176.94276	219.14069	202.89900	316.55283	52.17533	132.53558	267.88284	40.82779	130.96492	263.90735	38.05075	274.21640	305.23483	85.35458	256.26886	-286.89938	49.88125	133.78186	-237.94875	39.69179	133.89563	-239.38431	34.39451	277.12405	-281.10950	81.05039	258.41672	4.35529	1298.89014	313.33325	9.68982	746.63214	0.84428	4.35529	1298.89014	313.33325	-61.87872	1479.24585	193.36029	78.01105	1473.96045	191.65285	7.23489	1477.21252	122.51416	-125.14317	1346.44958	214.24919	-256.94836	1383.97546	153.38867	-296.02728	1482.46606	148.98158	-284.21277	1443.70264	57.56047	-297.01614	1666.59619	-0.87904	-247.86765	1662.35400	7.27125	-197.13849	1734.36914	-6.74911	137.92354	1344.83545	207.22926	256.60007	1387.72375	132.52829	291.55963	1487.65710	126.35487	269.17651	1451.11389	36.00234	264.28061	1676.00635	-15.57306	216.91725	1669.17896	-1.07830	167.24933	1743.55688	-3.53390	-11.40502	7.33248	-1.60339	-8.96895	6.40668	-6.24855	-4.32542	4.11599	0.06155	0.07929	5.02046	-0.05118	-5.70492	5.97460	1.84947	-4.78873	5.97000	0.91430	-34.65374	80.95296	-52.79213	30.29082	-69.89037	-48.30177	-42.07553	-69.89037	7.29855	-41.92886	-0.00000	7.29855	11.59385	22.76792	7.29855	4.83496	26.12676	-0.00000	-17.18006	-3.07546	-0.01112
36	0.70000	135.11789	828.00006	130.39331	-121.24747	828.34332	138.38472	-119.20520	843.05682	203.26929	137.16016	842.71356	195.27788	8.97748	842.88519	199.27357	-114.69865	465.00595	198.51305	137.89117	465.76111	180.63155	94.63770	403.40948	199.60710	231.57077	430.86499	189.83360	202.41663	220.04277	191.83945	-71.14146	403.23071	221.26485	-207.80415	429.95624	206.80621	-176.88814	219.40648	203.20125	316.41382	52.21039	132.35352	267.74200	40.86901	130.79497	263.77426	38.21074	274.04892	305.10794	85.49342	256.06003	-286.86377	49.98609	134.15993	-237.91771	39.77494	134.28789	-239.34885	34.71000	277.52475	-281.05405	81.35422	258.74393	4.33692	1299.14343	313.45081	9.80954	746.96796	0.81833	4.33692	1299.14343	313.45081	-62.24289	1479.03833	192.52608	77.66911	1474.25732	191.19244	7.03566	1476.34802	121.86319	-125.03519	1346.98682	214.29773	-256.93372	1384.33936	152.97578	-296.13547	1482.77063	148.34323	-283.98203	1443.92810	57.00023	-296.92313	1666.74133	-1.71444	-247.79410	1662.57812	6.59265	-197.78287	1735.63953	-6.29811	137.59558	1345.64856	207.02505	256.08780	1388.97522	132.13326	290.71774	1489.02258	125.94718	268.28812	1452.45325	35.61672	264.09946	1677.30603	-16.19338	216.70590	1670.63501	-1.72452	167.82596	1745.80945	-2.72609	-11.43151	7.32496	-1.61195	-8.99282	6.39945	-6.25103	-4.28788	4.11669	0.08970	0.07630	5.01977	-0.08539	-5.62114	5.97535	1.85225	-4.71197	5.95867	0.93083	-34.72298	81.11221	-53.01242	30.43255	-69.95757	-48.24098	-41.70534	-69.95757	6.96191	-41.96289	-0.00000	6.96191	12.16263	22.61466	6.96191	5.21754	25.71844	-0.00000	-17.95332	-2.84499	0.17397
37	0.72000	134.86832	827.89673	130.07076	-121.49156	828.34839	138.23270	-119.40022	843.11945	203.10260	136.95964	842.66779	194.94067	8.77971	842.89362	199.02164	-115.04089	465.06409	198.50198	137.87297	465.74097	180.69290	94.69397	403.37433	199.93361	231.57339	430.92938	189.69884	202.59230	220.08601	191.97354	-71.49226	403.31812	221.28160	-208.16054	430.01373	206.82025	-177.19643	219.47127	203.19926	316.52625	52.28237	132.26234	267.85654	40.91051	130.86935	264.34973	38.36954	274.13745	305.59708	85.66196	255.97672	-286.91849	49.57389	134.12460	-237.89095	39.76167	134.27248	-239.33629	34.69857	277.50928	-281.41266	80.99989	258.70786	4.26870	1299.19263	313.09225	9.53996	746.98553	0.51195	4.26870	1299.19263	313.09225	-62.83946	1478.80640	192.02011	77.10061	1474.76086	191.38242	6.81438	1476.88013	121.70205	-125.29771	1346.77844	214.04343	-257.27716	1383.91602	152.89815	-296.61325	1482.29529	148.29861	-284.60513	1443.42102	56.94987	-296.73383	1666.28809	-1.73392	-247.62006	1661.94421	6.57079	-197.49989	1734.98682	-6.19621	137.43987	1345.78772	206.75002	256.30060	1388.90088	132.04482	291.05304	1488.90137	125.78859	268.88928	1452.18604	35.45168	263.75504	1676.99158	-16.47871	216.37540	1670.11621	-2.05999	167.54353	1745.43457	-2.38987	-11.41506	7.39053	-1.61629	-9.02647	6.39835	-6.26198	-4.25461	4.13305	-0.04503	0.10513	4.98903	-0.11256	-5.62084	5.97519	1.84147	-4.70728	5.95343	0.47632	-34.69775	80.82006	-52.83470	30.37174	-69.81068	-48.11249	-42.07188	-69.81068	6.63341	-42.28782	-0.00000	6.63341	12.62400	22.46077	6.63341	5.41961	25.61513	-0.00000	-17.62839	-2.51311	0.15770
38	0.74000	134.22757	827.79724	130.19865	-122.13338	828.35736	138.31688	-120.04707	843.16931	203.17764	136.31389	842.60913	195.05942	8.13341	842.88922	199.11853	-115.58849	465.08325	198.79774	137.25902	465.70166	180.93053	94.08900	403.30136	200.05063	230.97087	430.94144	190.08170	202.10808	220.08012	192.18713	-71.99190	403.39130	221.47380	-208.70995	429.97382	207.27728	-177.56285	219.46204	203.45229	316.26071	52.30415	132.61096	267.59915	40.90955	131.12280	263.81412	38.36367	274.38373	305.07465	85.67579	256.30450	-287.11407	49.19006	134.44925	-238.02077	39.71148	134.50749	-239.18944	34.53886	277.74292	-281.61148	80.56595	259.04526	3.68345	1299.20227	313.11041	8.97895	746.97388	0.56843	3.68345	1299.20227	313.11041	-63.18508	1478.92480	191.91406	76.73969	1474.48438	190.75748	6.20870	1477.01941	121.33878	-126.36594	1345.92383	213.92963	-257.55469	1383.24414	152.53261	-296.60263	1481.73511	147.86719	-284.65073	1442.78735	56.54233	-296.90399	1665.60022	-2.32148	-247.78232	1661.28088	5.94925	-198.09607	1734.88525	-5.99434	137.05498	1345.58154	206.95576	256.08624	1388.43591	132.35680	291.08130	1488.35522	126.15530	268.89307	1451.72046	35.79177	263.67505	1676.57410	-15.92096	216.30296	1669.67151	-1.49055	168.26161	1745.88550	-2.44319	-11.43539	7.42676	-1.62366	-9.03711	6.34861	-6.25017	-4.22381	4.14619	0.06586	0.16792	4.96300	-0.01052	-5.58943	5.97605	1.83279	-4.70920	5.95980	0.13842	-34.68209	80.81429	-52.71128	30.40168	-69.80191	-48.25607	-42.24118	-69.80191	6.62673	-42.10202	-0.00000	6.62673	12.43825	21.68491	6.62673	5.95115	25.44961	-0.00000	-17.45464	-2.71276	-0.03357
